<?xml version="1.0" encoding="UTF-8" standalone="no" ?>
<!DOCTYPE svg PUBLIC "-//W3C//DTD SVG 1.1//EN" "http://www.w3.org/Graphics/SVG/1.1/DTD/svg11.dtd">
<svg xmlns="http://www.w3.org/2000/svg" xmlns:xlink="http://www.w3.org/1999/xlink" version="1.1" width="1080" height="1080" viewBox="0 0 1080 1080" xml:space="preserve">
<desc>Created with Fabric.js 5.2.4</desc>
<defs>
</defs>
<rect x="0" y="0" width="100%" height="100%" fill="transparent"></rect>
<g transform="matrix(1 0 0 1 540 540)" id="849afc43-6318-4606-accc-ebad3a757c74"  >
</g>
<g transform="matrix(1 0 0 1 540 540)" id="77cefbcc-3159-46f9-9845-0fe37c349866"  >
<rect style="stroke: none; stroke-width: 1; stroke-dasharray: none; stroke-linecap: butt; stroke-dashoffset: 0; stroke-linejoin: miter; stroke-miterlimit: 4; fill: rgb(255,255,255); fill-rule: nonzero; opacity: 1; visibility: hidden;" vector-effect="non-scaling-stroke"  x="-540" y="-540" rx="0" ry="0" width="1080" height="1080" />
</g>
<g transform="matrix(1.33 0 0 -1.33 535.88 622.35)" clip-path="url(#CLIPPATH_24)"  >
<clipPath id="CLIPPATH_24" >
	<path transform="matrix(1 0 0 1 119.64 -90.52) translate(-420.94, -297.64)" d="M 0 595.28 L 841.89 595.28 L 841.89 0 L 0 0 Z" stroke-linecap="round" />
</clipPath>
<path style="stroke: none; stroke-width: 1; stroke-dasharray: none; stroke-linecap: butt; stroke-dashoffset: 0; stroke-linejoin: miter; stroke-miterlimit: 4; fill: rgb(255,255,255); fill-rule: nonzero; opacity: 1;" vector-effect="non-scaling-stroke"  transform=" translate(-2.75, 0.91)" d="M 0 0 C 0 0 0.902 -1.392 1.135 -2.036 C 1.367 -2.681 1.211 -3.1950000000000003 1.6760000000000002 -4.125 C 2.411 -5.595 5.002000000000001 -7.786 5.002000000000001 -7.786 L 5.002000000000001 -5.803999999999999 C 5.002000000000001 -5.406999999999999 5.492000000000001 -5.2139999999999995 5.492000000000001 -4.816999999999999 C 5.492000000000001 -4.420999999999999 4.783000000000001 5.9700000000000015 4.783000000000001 5.9700000000000015 C 4.783000000000001 5.9700000000000015 3.997000000000001 2.1280000000000014 3.6490000000000014 1.1740000000000013 C 3.301 0.22 2.9 -1.572 2.746 -1.649 C 2.592 -1.727 1.573 -1.198 1.084 -0.721 C 0.594 -0.244 0 0 0 0" stroke-linecap="round" />
</g>
<g transform="matrix(1.33 0 0 -1.33 544.78 622.35)" clip-path="url(#CLIPPATH_25)"  >
<clipPath id="CLIPPATH_25" >
	<path transform="matrix(1 0 0 1 112.96 -90.52) translate(-420.94, -297.64)" d="M 0 595.28 L 841.89 595.28 L 841.89 0 L 0 0 Z" stroke-linecap="round" />
</clipPath>
<path style="stroke: none; stroke-width: 1; stroke-dasharray: none; stroke-linecap: butt; stroke-dashoffset: 0; stroke-linejoin: miter; stroke-miterlimit: 4; fill: rgb(255,255,255); fill-rule: nonzero; opacity: 1;" vector-effect="non-scaling-stroke"  transform=" translate(2.75, 0.91)" d="M 0 0 C 0 0 -0.902 -1.392 -1.135 -2.036 C -1.366 -2.681 -1.211 -3.1950000000000003 -1.6760000000000002 -4.125 C -2.411 -5.595 -5.002000000000001 -7.786 -5.002000000000001 -7.786 L -5.002000000000001 -5.803999999999999 C -5.002000000000001 -5.406999999999999 -5.492000000000001 -5.2139999999999995 -5.492000000000001 -4.816999999999999 C -5.492000000000001 -4.420999999999999 -4.783000000000001 5.9700000000000015 -4.783000000000001 5.9700000000000015 C -4.783000000000001 5.9700000000000015 -3.997000000000001 2.1280000000000014 -3.6480000000000015 1.1740000000000013 C -3.3010000000000015 0.2200000000000013 -2.9000000000000012 -1.5719999999999987 -2.7460000000000013 -1.6489999999999987 C -2.5920000000000014 -1.7269999999999988 -1.5730000000000013 -1.1979999999999986 -1.0830000000000013 -0.7209999999999986 C -0.594 -0.244 0 0 0 0" stroke-linecap="round" />
</g>
<g transform="matrix(1.33 0 0 -1.33 540.22 522.53)" clip-path="url(#CLIPPATH_26)"  >
<clipPath id="CLIPPATH_26" >
	<path transform="matrix(1 0 0 1 116.34 -165.36) translate(-420.94, -297.64)" d="M 0 595.28 L 841.89 595.28 L 841.89 0 L 0 0 Z" stroke-linecap="round" />
</clipPath>
<path style="stroke: none; stroke-width: 1; stroke-dasharray: none; stroke-linecap: butt; stroke-dashoffset: 0; stroke-linejoin: miter; stroke-miterlimit: 4; fill: rgb(255,255,255); fill-rule: nonzero; opacity: 1;" vector-effect="non-scaling-stroke"  transform=" translate(4.4, -3.52)" d="M 0 0 C -2.037 1.031 -3.945 2.243 -4.074 2.347 C -4.202999999999999 2.449 -4.178 2.669 -4.3709999999999996 2.926 C -4.563999999999999 3.184 -6.071999999999999 3.88 -6.071999999999999 3.88 C -6.071999999999999 3.88 -3.867999999999999 5.105 -2.3979999999999992 5.105 C -0.9289999999999992 5.105 -0.7999999999999992 4.744000000000001 0.0250000000000008 4.551 C 0.851 4.357 2.32 4.254 2.32 4.254 C 2.32 4.254 0.03799999999999981 3.6089999999999995 0.03799999999999981 3.0169999999999995 C 0.03799999999999981 2.4239999999999995 5.7490000000000006 -2.5010000000000003 5.7490000000000006 -2.5010000000000003 C 5.7490000000000006 -2.5010000000000003 2.0370000000000004 -1.0310000000000004 8.881784197001252e-16 -4.440892098500626e-16 M -1.2679999999999991 14.325 C -1.2519999999999991 14.122 -1.237999999999999 13.927 -1.2289999999999992 13.741999999999999 C -1.1029999999999993 11.463 -1.1979999999999993 9.204999999999998 -1.2229999999999992 9.041 C -1.247999999999999 8.878 -1.4509999999999992 8.791 -1.576999999999999 8.494 C -1.703999999999999 8.198 -1.552999999999999 6.544 -1.552999999999999 6.544 C -1.552999999999999 6.544 -3.715999999999999 7.840999999999999 -4.449999999999999 9.113 C -5.185999999999999 10.387 -4.936999999999999 10.677999999999999 -5.1819999999999995 11.488999999999999 C -5.427 12.300999999999998 -6.071999999999999 13.625 -6.071999999999999 13.625 C -6.071999999999999 13.625 -4.373999999999999 11.971 -3.859999999999999 12.268 C -3.5839999999999987 12.427000000000001 -3.048999999999999 14.643 -2.6129999999999987 16.656 L -4.406999999999998 19.764 L -12.521999999999998 5.709 C -12.503999999999998 5.720999999999999 -12.485999999999999 5.733 -12.468999999999998 5.744 C -10.556999999999999 6.993 -8.553999999999998 8.039 -8.399999999999999 8.1 C -8.245999999999999 8.16 -8.068999999999999 8.027 -7.748999999999999 8.065999999999999 C -7.4289999999999985 8.104 -6.071999999999999 9.062999999999999 -6.071999999999999 9.062999999999999 C -6.071999999999999 9.062999999999999 -6.113999999999999 6.540999999999999 -6.848999999999999 5.268999999999998 C -7.584 3.996 -7.961 4.064 -8.54 3.447 C -9.121 2.829 -9.945 1.608 -9.945 1.608 C -9.945 1.608 -9.361 3.906 -9.875 4.203 C -10.137 4.354 -12.104 3.7860000000000005 -13.975999999999999 3.1910000000000003 L -22.311 -11.244 C -20.605 -11.81 -19.607 -12.725 -17.694 -12.725 C -14.93 -12.725 -4.718999999999999 -3.9450000000000003 -4.718999999999999 -3.9450000000000003 C -4.718999999999999 -3.9450000000000003 -4.7059999999999995 -5.430000000000001 -4.358 -6.2780000000000005 C -4.010999999999999 -5.430000000000001 -3.997 -3.9450000000000003 -3.997 -3.9450000000000003 C -3.997 -3.9450000000000003 6.213000000000001 -12.725 8.979000000000001 -12.725 C 10.859000000000002 -12.725 11.856000000000002 -11.839 13.512 -11.272 z" stroke-linecap="round" />
</g>
<g transform="matrix(1.33 0 0 -1.33 540.86 533.94)" clip-path="url(#CLIPPATH_27)"  >
<clipPath id="CLIPPATH_27" >
	<path transform="matrix(1 0 0 1 116.36 -156.12) translate(-420.94, -297.64)" d="M 0 595.28 L 841.89 595.28 L 841.89 0 L 0 0 Z" stroke-linecap="round" />
</clipPath>
<path style="stroke: none; stroke-width: 1; stroke-dasharray: none; stroke-linecap: butt; stroke-dashoffset: 0; stroke-linejoin: miter; stroke-miterlimit: 4; fill: rgb(255,255,255); fill-rule: nonzero; opacity: 1;" vector-effect="non-scaling-stroke"  transform=" translate(0, 59.7)" d="M 0 0 L 66.746 -115.608 L -66.747 -115.608 Z M 7.608 -124.162 C 7.608 -124.162 7.754 -121.477 9.538 -117.986 L 70.865 -117.986 L 0 4.757 L -70.867 -117.986 L -9.431000000000004 -117.986 C -7.646000000000004 -121.477 -7.501000000000005 -124.162 -7.501000000000005 -124.162 C -7.501000000000005 -124.162 -6.920000000000005 -120.18400000000001 -6.871000000000005 -117.986 L 6.978999999999995 -117.986 C 7.027999999999995 -120.184 7.607999999999995 -124.162 7.607999999999995 -124.162" stroke-linecap="round" />
</g>
<g transform="matrix(1.33 0 0 -1.33 594.25 504.47)" clip-path="url(#CLIPPATH_28)"  >
<clipPath id="CLIPPATH_28" >
	<path transform="matrix(1 0 0 1 75.83 -178.86) translate(-420.94, -297.64)" d="M 0 595.28 L 841.89 595.28 L 841.89 0 L 0 0 Z" stroke-linecap="round" />
</clipPath>
<path style="stroke: none; stroke-width: 1; stroke-dasharray: none; stroke-linecap: butt; stroke-dashoffset: 0; stroke-linejoin: miter; stroke-miterlimit: 4; fill: rgb(255,255,255); fill-rule: nonzero; opacity: 1;" vector-effect="non-scaling-stroke"  transform=" translate(-4.59, -10.01)" d="M 0 0 C 2.243 -2.32 4.409 -6.304 5.569 -8.856 C 6.729 -11.408999999999999 6.343 -14.426 6.227 -16.553 C 6.17 -17.601 5.868 -18.901 5.577 -19.952 L 9.849 -27.35 C 11.172 -25.251 13.725 -21.065 14.968 -18.119 C 16.688 -14.039 16.495 -12.859 17.113 -11.583 C 17.732 -10.307 18.022 -9.63 18.022 -8.315000000000001 C 18.022 -7.000000000000002 17.965 -3.3070000000000013 16.012 1.102999999999998 C 14.059000000000001 5.511999999999998 10.906 8.121999999999998 10.906 8.121999999999998 C 10.906 8.121999999999998 13.401 5.124999999999998 14.406 2.4559999999999977 C 15.412 -0.2130000000000023 14.89 -1.4310000000000023 14.89 -1.4310000000000023 C 14.89 -1.4310000000000023 10.906 4.369999999999997 7.9670000000000005 7.695999999999998 C 5.027000000000001 11.021999999999998 2.6690000000000005 12.144999999999998 0.42600000000000016 15.778999999999998 C -1.8169999999999997 19.415 -2.397 23.554 -2.0109999999999997 26.221999999999998 C -1.6239999999999997 28.891 -0.019999999999999574 32.777 -0.019999999999999574 32.777 C -0.4059999999999996 32.726 -0.5619999999999996 32.552 -0.5619999999999996 32.552 C -0.5619999999999996 32.552 -0.6059999999999997 32.964 -0.2969999999999996 33.635 C 0.0130000000000004 34.305 0.36700000000000044 35.021 0.36700000000000044 35.021 C 0.36700000000000044 35.021 -0.14299999999999957 34.82 -0.5799999999999995 34.272 C -1.0189999999999995 33.725 -1.3279999999999994 32.873999999999995 -1.3279999999999994 32.873999999999995 C -1.3279999999999994 32.873999999999995 -1.9399999999999995 33.47899999999999 -1.9399999999999995 34.266999999999996 C -1.9399999999999995 35.053 -1.5269999999999995 35.861 -1.5269999999999995 35.861 C -1.7739999999999996 35.799 -1.8709999999999996 35.692 -1.8709999999999996 35.692 C -1.8709999999999996 35.692 -2.0599999999999996 35.784 -1.0539999999999996 38.211 C -0.0479999999999996 40.638 0.7220000000000004 43.161 0.7220000000000004 43.161 C 0.048000000000000376 43.316 0.7830000000000004 44.254000000000005 1.2180000000000004 44.844 C 1.6530000000000005 45.434000000000005 3.1710000000000003 47.377 3.1710000000000003 47.377 C 3.1710000000000003 47.377 -5.182999999999999 39.178000000000004 -7.039000000000001 30.67 C -8.896 22.161 -9.437 16.437 -8.122 12.338 C -6.807 8.238 -2.243 2.32 0 0" stroke-linecap="round" />
</g>
<g transform="matrix(1.33 0 0 -1.33 485.63 504.69)" clip-path="url(#CLIPPATH_29)"  >
<clipPath id="CLIPPATH_29" >
	<path transform="matrix(1 0 0 1 157.3 -178.69) translate(-420.94, -297.64)" d="M 0 595.28 L 841.89 595.28 L 841.89 0 L 0 0 Z" stroke-linecap="round" />
</clipPath>
<path style="stroke: none; stroke-width: 1; stroke-dasharray: none; stroke-linecap: butt; stroke-dashoffset: 0; stroke-linejoin: miter; stroke-miterlimit: 4; fill: rgb(255,255,255); fill-rule: nonzero; opacity: 1;" vector-effect="non-scaling-stroke"  transform=" translate(-10.38, -27.96)" d="M 0 0 C 1.314 -3.117 4.095 -7.619 5.335 -9.572 L 9.526 -2.312999999999999 C 9.2 -1.201 8.807 0.353 8.74 1.566 C 8.624 3.693 8.237 6.71 9.397 9.263 C 10.559000000000001 11.815 12.724 15.799 14.967 18.119 C 17.21 20.439 21.774 26.357 23.089 30.457 C 24.403 34.557 23.862 40.28 22.006 48.789 C 20.149 57.297 11.796 65.49600000000001 11.796 65.49600000000001 C 11.796 65.49600000000001 13.312999999999999 63.55300000000001 13.748999999999999 62.96300000000001 C 14.184 62.373000000000005 14.918999999999999 61.43600000000001 14.245 61.28000000000001 C 14.245 61.28000000000001 15.016 58.757000000000005 16.021 56.330000000000005 C 17.026 53.903000000000006 16.838 53.812000000000005 16.838 53.812000000000005 C 16.838 53.812000000000005 16.741 53.918000000000006 16.495 53.980000000000004 C 16.495 53.980000000000004 16.907 53.172000000000004 16.907 52.386 C 16.907 51.599000000000004 16.295 50.993 16.295 50.993 C 16.295 50.993 15.985000000000001 51.844 15.548000000000002 52.392 C 15.109000000000002 52.939 14.601000000000003 53.14 14.601000000000003 53.14 C 14.601000000000003 53.14 14.954000000000002 52.424 15.264000000000003 51.754 C 15.573000000000002 51.083 15.528000000000002 50.671 15.528000000000002 50.671 C 15.528000000000002 50.671 15.374000000000002 50.845 14.986000000000002 50.896 C 14.986000000000002 50.896 16.592000000000002 47.01 16.979000000000003 44.341 C 17.365 41.673 16.785 37.534 14.542 33.898 C 12.299 30.264 9.939 29.142 7 25.815 C 4.061 22.489 0.077 16.688 0.077 16.688 C 0.077 16.688 -0.444 17.906 0.5609999999999999 20.575 C 1.5659999999999998 23.244 4.061 26.241 4.061 26.241 C 4.061 26.241 0.9089999999999998 23.631 -1.0440000000000005 19.222 C -2.9970000000000008 14.813000000000002 -3.0560000000000005 11.119000000000002 -3.0560000000000005 9.804000000000002 C -3.0560000000000005 8.489000000000003 -2.7660000000000005 7.812000000000002 -2.1460000000000004 6.536000000000002 C -1.527 5.26 -1.721 4.08 0 0" stroke-linecap="round" />
</g>
<g transform="matrix(1.33 0 0 -1.33 540.33 545.05)" clip-path="url(#CLIPPATH_30)"  >
<clipPath id="CLIPPATH_30" >
	<path transform="matrix(1 0 0 1 116.31 -148.51) translate(-420.94, -297.64)" d="M 0 595.28 L 841.89 595.28 L 841.89 0 L 0 0 Z" stroke-linecap="round" />
</clipPath>
<path style="stroke: none; stroke-width: 1; stroke-dasharray: none; stroke-linecap: butt; stroke-dashoffset: 0; stroke-linejoin: miter; stroke-miterlimit: 4; fill: rgb(255,255,255); fill-rule: nonzero; opacity: 1;" vector-effect="non-scaling-stroke"  transform=" translate(0.28, 2.33)" d="M 0 0 C 0 0.518 -0.085 0.771 -0.284 1.004 C -0.482 0.771 -0.567 0.518 -0.567 0 L -0.567 -5.144 C -0.567 -5.397 -0.42599999999999993 -5.567 -0.284 -5.673 C -0.143 -5.567 0 -5.397 0 -5.144 Z" stroke-linecap="round" />
</g>
<g transform="matrix(1.33 0 0 -1.33 586.45 562.18)" clip-path="url(#CLIPPATH_31)"  >
<clipPath id="CLIPPATH_31" >
	<path transform="matrix(1 0 0 1 81.71 -135.66) translate(-420.94, -297.64)" d="M 0 595.28 L 841.89 595.28 L 841.89 0 L 0 0 Z" stroke-linecap="round" />
</clipPath>
<path style="stroke: none; stroke-width: 1; stroke-dasharray: none; stroke-linecap: butt; stroke-dashoffset: 0; stroke-linejoin: miter; stroke-miterlimit: 4; fill: rgb(255,255,255); fill-rule: nonzero; opacity: 1;" vector-effect="non-scaling-stroke"  transform=" translate(-2.19, -0.38)" d="M 0 0 L 1.374 -2.381 C 2.422 -0.523 3.531 1.541 4.379 3.143 C 2.972 2.155 1.214 0.901 0 0" stroke-linecap="round" />
</g>
<g transform="matrix(1.33 0 0 -1.33 540.33 563.75)" clip-path="url(#CLIPPATH_32)"  >
<clipPath id="CLIPPATH_32" >
	<path transform="matrix(1 0 0 1 116.31 -134.49) translate(-420.94, -297.64)" d="M 0 595.28 L 841.89 595.28 L 841.89 0 L 0 0 Z" stroke-linecap="round" />
</clipPath>
<path style="stroke: none; stroke-width: 1; stroke-dasharray: none; stroke-linecap: butt; stroke-dashoffset: 0; stroke-linejoin: miter; stroke-miterlimit: 4; fill: rgb(255,255,255); fill-rule: nonzero; opacity: 1;" vector-effect="non-scaling-stroke"  transform=" translate(0, 1.57)" d="M 0 0 C -0.116 -0.092 -0.216 -0.222 -0.216 -0.407 L -0.216 -2.486 C -0.216 -2.7720000000000002 -0.114 -2.982 0 -3.132 C 0.114 -2.982 0.216 -2.7720000000000002 0.216 -2.486 L 0.216 -0.40700000000000003 C 0.216 -0.222 0.116 -0.092 0 0" stroke-linecap="round" />
</g>
<g transform="matrix(1.33 0 0 -1.33 533.16 601.02)" clip-path="url(#CLIPPATH_33)"  >
<clipPath id="CLIPPATH_33" >
	<path transform="matrix(1 0 0 1 121.69 -106.52) translate(-420.94, -297.64)" d="M 0 595.28 L 841.89 595.28 L 841.89 0 L 0 0 Z" stroke-linecap="round" />
</clipPath>
<path style="stroke: none; stroke-width: 1; stroke-dasharray: none; stroke-linecap: butt; stroke-dashoffset: 0; stroke-linejoin: miter; stroke-miterlimit: 4; fill: rgb(255,255,255); fill-rule: nonzero; opacity: 1;" vector-effect="non-scaling-stroke"  transform=" translate(0.61, -1.21)" d="M 0 0 C -0.129 0.232 -0.142 0.8 -0.142 1.096 C -0.142 1.393 -0.46399999999999997 1.1600000000000001 -1.212 2.4240000000000004 C -1.96 3.6880000000000006 -2.179 4.8340000000000005 -2.179 4.8340000000000005 C -2.179 4.8340000000000005 -2.114 3.4160000000000004 -2.32 1.9210000000000007 C -2.526 0.4260000000000006 -3.223 -0.39899999999999913 -3.2489999999999997 -1.2759999999999994 C -3.2589999999999995 -1.6089999999999993 -3.171 -2.0229999999999992 -3.0599999999999996 -2.4099999999999993 L 2.035 -2.4099999999999993 C 1.356 -1.629 0.094 -0.169 0 0" stroke-linecap="round" />
</g>
<g transform="matrix(1.33 0 0 -1.33 551.59 567.85)" clip-path="url(#CLIPPATH_34)"  >
<clipPath id="CLIPPATH_34" >
	<path transform="matrix(1 0 0 1 107.8 -131.37) translate(-420.94, -297.64)" d="M 0 595.28 L 841.89 595.28 L 841.89 0 L 0 0 Z" stroke-linecap="round" />
</clipPath>
<path style="stroke: none; stroke-width: 1; stroke-dasharray: none; stroke-linecap: butt; stroke-dashoffset: 0; stroke-linejoin: miter; stroke-miterlimit: 4; fill: rgb(255,255,255); fill-rule: nonzero; opacity: 1;" vector-effect="non-scaling-stroke"  transform=" translate(-14.19, -9.6)" d="M 0 0 C 1.063 1.683 0.947 3.877 1.354 4.834 C 1.76 5.792 4.409 8.47 4.409 8.47 C 4.409 8.47 5.028 7.687 5.125 6.769 C 5.199 6.062 5.529 5.232 5.679 4.886 C 5.828 5.232 6.159 6.062 6.233 6.769 C 6.33 7.687 6.949 8.47 6.949 8.47 C 6.949 8.47 9.597999999999999 5.792000000000001 10.004 4.8340000000000005 C 10.41 3.8770000000000007 10.293999999999999 1.6830000000000007 11.357 8.881784197001252e-16 C 12.421 -1.6829999999999992 14.335999999999999 -3.035999999999999 14.741999999999999 -4.041999999999999 C 15.146999999999998 -5.046999999999999 15.187 -5.871999999999999 15.187 -5.871999999999999 C 15.187 -5.871999999999999 16.057 -5.259999999999999 16.366 -5.162999999999999 C 16.676 -5.065999999999999 17.082 -5.026999999999999 17.294 -4.872999999999999 C 17.507 -4.718999999999999 18.441 -4.151 18.441 -4.151 C 18.441 -4.151 18.813 -5.075 19.23 -5.872 L 20.253 -5.872 L 20.253 -5.473 C 20.253 -5.24 20.485 -4.699 20.485 -3.964 C 20.485 -3.229 19.615 -2.34 19.615 -1.8370000000000002 C 19.615 -1.334 20.349999999999998 0.17399999999999993 20.639999999999997 0.6769999999999996 C 20.929999999999996 1.1799999999999997 21.064999999999998 1.9919999999999995 21.064999999999998 1.9919999999999995 C 21.064999999999998 1.9919999999999995 19.459999999999997 0.21299999999999963 18.822 -0.5410000000000004 C 18.183999999999997 -1.2960000000000003 16.173 -2.9200000000000004 16.173 -2.9200000000000004 C 16.173 -2.9200000000000004 16.133999999999997 -1.4310000000000003 16.636999999999997 0.6569999999999996 C 16.785999999999998 1.2769999999999997 17.155999999999995 2.2779999999999996 17.600999999999996 3.4459999999999997 C 17.712999999999994 3.5989999999999998 17.818999999999996 3.7239999999999998 17.905999999999995 3.7899999999999996 C 18.311999999999994 4.1 20.110999999999997 5.0089999999999995 20.574999999999996 5.0089999999999995 C 21.038999999999994 5.0089999999999995 21.270999999999997 4.505999999999999 21.870999999999995 4.505999999999999 C 22.470999999999997 4.505999999999999 24.403999999999996 5.936999999999999 25.177999999999994 6.902999999999999 C 25.784999999999993 7.6629999999999985 26.785999999999994 9.685999999999998 27.186999999999994 10.52 L 28.354999999999993 10.52 C 28.354999999999993 10.52 27.503999999999994 7.986 26.595999999999993 5.6659999999999995 C 25.686999999999994 3.3459999999999996 24.545999999999992 1.4309999999999992 23.05699999999999 -2.301 C 22.40499999999999 -3.934 21.98699999999999 -5.089 21.722999999999992 -5.872 L 43.56399999999999 -5.872 L 38.01899999999999 3.731 C 35.39799999999999 1.5709999999999997 32.71699999999999 -0.07699999999999996 32.71699999999999 -0.07699999999999996 C 32.71699999999999 -0.07699999999999996 34.65999999999999 3.633 36.49499999999999 6.37 L 34.576 9.696 C 33.953 8.846 33.009 7.497 32.906 7 C 32.751 6.253 32.745 5.473 32.745 5.473 C 32.745 5.473 30.404999999999998 8.644 30.404999999999998 9.514 C 30.404999999999998 10.085999999999999 31.458999999999996 12.356 32.181 13.844 L 30.429 16.878999999999998 C 30.278 15.710999999999999 30.223 14.181999999999999 30.134999999999998 13.974999999999998 C 30.019 13.703999999999997 29.534999999999997 13.877999999999998 29.398999999999997 13.703999999999997 C 29.362 13.655999999999997 29.132999999999996 13.392999999999997 28.819 13.035999999999998 C 28.546 13.587999999999997 27.766 14.928999999999998 26.628 14.928999999999998 C 25.197 14.928999999999998 24.675 13.149 23.65 12.355999999999998 C 22.625 11.562999999999999 22.432 11.312999999999999 21.831999999999997 10.383999999999999 C 21.231999999999996 9.455999999999998 20.478999999999996 7.618999999999998 19.685999999999996 6.825999999999999 C 19.351999999999997 6.491999999999999 18.925999999999995 6.175999999999998 18.542999999999996 5.9209999999999985 C 19.366999999999997 8.130999999999998 20.136999999999997 10.415999999999999 20.136999999999997 11.718999999999998 C 20.136999999999997 14.289999999999997 19.228999999999996 19.897999999999996 19.228999999999996 19.897999999999996 C 19.228999999999996 19.897999999999996 23.965999999999994 22.355999999999995 26.464999999999996 23.744999999999997 L 25.726999999999997 25.023999999999997 C 24.831999999999997 24.563999999999997 23.871999999999996 24.051 22.843999999999998 23.552999999999997 C 20.445999999999998 22.392999999999997 17.933 21.657999999999998 17.816 21.31 C 17.7 20.962 18.416 17.982999999999997 18.416 16.919999999999998 C 18.416 15.855999999999998 17.604 14.831999999999997 17.604 13.941999999999998 C 17.604 13.052999999999999 17.894 13.129999999999999 17.894 11.369999999999997 C 17.894 9.609999999999998 15.050999999999998 -0.9860000000000024 15.050999999999998 -0.9860000000000024 C 15.050999999999998 -0.9860000000000024 13.232999999999999 0.8899999999999975 12.613999999999999 2.1659999999999977 C 11.995999999999999 3.4419999999999975 11.126 7.1359999999999975 9.636999999999999 8.565999999999999 C 8.450999999999999 9.706 6.446999999999999 10.488 5.6789999999999985 10.761 C 4.91 10.488 2.907 9.706 1.721 8.566 C 0.232 7.136 -0.638 3.442 -1.257 2.166 C -1.876 0.89 -3.693 -0.986 -3.693 -0.986 C -3.693 -0.986 -6.536 9.61 -6.536 11.37 C -6.536 13.129999999999999 -6.2459999999999996 13.052999999999999 -6.2459999999999996 13.942 C -6.2459999999999996 14.832 -7.058999999999999 15.856 -7.058999999999999 16.92 C -7.058999999999999 17.983 -6.342999999999999 20.962000000000003 -6.459 21.310000000000002 C -6.574 21.658 -9.088999999999999 22.393 -11.486 23.553 C -12.545 24.065 -13.528 24.593 -14.444 25.062 L -15.182 23.786 C -12.704 22.405 -7.87 19.898000000000003 -7.87 19.898000000000003 C -7.87 19.898000000000003 -8.779 14.290000000000003 -8.779 11.719000000000003 C -8.779 9.146000000000003 -5.781 2.746000000000002 -5.279 0.6570000000000036 C -4.776 -1.4309999999999965 -4.814 -2.9199999999999964 -4.814 -2.9199999999999964 C -4.814 -2.9199999999999964 -6.8260000000000005 -1.2959999999999963 -7.464 -0.5409999999999964 C -8.103 0.21300000000000363 -9.707 1.9920000000000035 -9.707 1.9920000000000035 C -9.707 1.9920000000000035 -9.572000000000001 1.1800000000000035 -9.282 0.6770000000000036 C -8.992 0.1740000000000036 -8.257 -1.3339999999999965 -8.257 -1.8369999999999962 C -8.257 -2.3399999999999963 -9.126999999999999 -3.228999999999996 -9.126999999999999 -3.963999999999996 C -9.126999999999999 -4.698999999999996 -8.895999999999999 -5.239999999999996 -8.895999999999999 -5.472999999999995 L -8.895999999999999 -5.8719999999999954 L -7.871999999999999 -5.8719999999999954 C -7.455999999999999 -5.074999999999996 -7.082999999999999 -4.150999999999995 -7.082999999999999 -4.150999999999995 C -7.082999999999999 -4.150999999999995 -6.148999999999999 -4.718999999999995 -5.936999999999999 -4.872999999999996 C -5.723999999999999 -5.026999999999996 -5.316999999999999 -5.065999999999995 -5.007999999999999 -5.162999999999996 C -4.698999999999999 -5.259999999999996 -3.8279999999999994 -5.8719999999999954 -3.8279999999999994 -5.8719999999999954 C -3.8279999999999994 -5.8719999999999954 -3.7899999999999996 -5.046999999999995 -3.3839999999999995 -4.041999999999995 C -2.978 -3.036 -1.063 -1.683 0 0" stroke-linecap="round" />
</g>
<g transform="matrix(1.33 0 0 -1.33 540.33 582.5)" clip-path="url(#CLIPPATH_35)"  >
<clipPath id="CLIPPATH_35" >
	<path transform="matrix(1 0 0 1 116.31 -120.42) translate(-420.94, -297.64)" d="M 0 595.28 L 841.89 595.28 L 841.89 0 L 0 0 Z" stroke-linecap="round" />
</clipPath>
<path style="stroke: none; stroke-width: 1; stroke-dasharray: none; stroke-linecap: butt; stroke-dashoffset: 0; stroke-linejoin: miter; stroke-miterlimit: 4; fill: rgb(255,255,255); fill-rule: nonzero; opacity: 1;" vector-effect="non-scaling-stroke"  transform=" translate(0.34, 4.12)" d="M 0 0 C 0 0.198 -0.169 0.321 -0.335 0.395 C -0.5 0.321 -0.67 0.198 -0.67 0 L -0.67 -8.457 C -0.67 -8.524000000000001 -0.658 -8.581000000000001 -0.641 -8.631 L -0.028000000000000025 -8.631 C -0.011 -8.581 0 -8.524 0 -8.457 Z" stroke-linecap="round" />
</g>
<g transform="matrix(1.33 0 0 -1.33 588.58 583.39)" clip-path="url(#CLIPPATH_36)"  >
<clipPath id="CLIPPATH_36" >
	<path transform="matrix(1 0 0 1 80.06 -119.72) translate(-420.94, -297.64)" d="M 0 595.28 L 841.89 595.28 L 841.89 0 L 0 0 Z" stroke-linecap="round" />
</clipPath>
<path style="stroke: none; stroke-width: 1; stroke-dasharray: none; stroke-linecap: butt; stroke-dashoffset: 0; stroke-linejoin: miter; stroke-miterlimit: 4; fill: rgb(255,255,255); fill-rule: nonzero; opacity: 1;" vector-effect="non-scaling-stroke"  transform=" translate(5.96, 16.82)" d="M 0 0 C -1.031 -1.28 -3.847 -4.741 -6.245 -7.383 C -6.252 -7.39 -6.258 -7.396 -6.265 -7.404 L 3.615000000000001 -24.516 L -28.826999999999998 -24.516 C -29.244999999999997 -25.581999999999997 -29.784999999999997 -27.116 -30.346999999999998 -29.156 C -30.938999999999997 -31.308999999999997 -31.217999999999996 -32.737 -31.348 -33.643 L 19.424 -33.643 z" stroke-linecap="round" />
</g>
<g transform="matrix(1.33 0 0 -1.33 493.58 562.01)" clip-path="url(#CLIPPATH_37)"  >
<clipPath id="CLIPPATH_37" >
	<path transform="matrix(1 0 0 1 151.36 -135.78) translate(-420.94, -297.64)" d="M 0 595.28 L 841.89 595.28 L 841.89 0 L 0 0 Z" stroke-linecap="round" />
</clipPath>
<path style="stroke: none; stroke-width: 1; stroke-dasharray: none; stroke-linecap: butt; stroke-dashoffset: 0; stroke-linejoin: miter; stroke-miterlimit: 4; fill: rgb(255,255,255); fill-rule: nonzero; opacity: 1;" vector-effect="non-scaling-stroke"  transform=" translate(0.94, -3.21)" d="M 0 0 L 1.607 2.785 C 0.139 3.872 -2.054 5.427 -3.493 6.427 C -2.574 4.682 -1.23 2.166 0 0" stroke-linecap="round" />
</g>
<g transform="matrix(1.33 0 0 -1.33 491.83 583.56)" clip-path="url(#CLIPPATH_38)"  >
<clipPath id="CLIPPATH_38" >
	<path transform="matrix(1 0 0 1 152.63 -119.59) translate(-420.94, -297.64)" d="M 0 595.28 L 841.89 595.28 L 841.89 0 L 0 0 Z" stroke-linecap="round" />
</clipPath>
<path style="stroke: none; stroke-width: 1; stroke-dasharray: none; stroke-linecap: butt; stroke-dashoffset: 0; stroke-linejoin: miter; stroke-miterlimit: 4; fill: rgb(255,255,255); fill-rule: nonzero; opacity: 1;" vector-effect="non-scaling-stroke"  transform=" translate(24.46, -12.2)" d="M 0 0 C -0.562 2.04 -1.101 3.574 -1.519 4.641 L -34.11 4.641 L -24.375999999999998 21.500999999999998 C -24.455999999999996 21.589 -24.537 21.679999999999996 -24.622999999999998 21.772999999999996 C -26.868 24.246999999999996 -29.479999999999997 27.438999999999997 -30.650999999999996 28.887999999999998 L -49.92 -4.486 L 1.002 -4.486 C 0.872 -3.581 0.594 -2.152 0 0" stroke-linecap="round" />
</g>
<g transform="matrix(1.33 0 0 -1.33 540.07 509.47)" clip-path="url(#CLIPPATH_39)"  >
<clipPath id="CLIPPATH_39" >
	<path transform="matrix(1 0 0 1 116.42 -175.12) translate(-420.94, -297.64)" d="M 0 595.28 L 841.89 595.28 L 841.89 0 L 0 0 Z" stroke-linecap="round" />
</clipPath>
<path style="stroke: none; stroke-width: 1; stroke-dasharray: none; stroke-linecap: butt; stroke-dashoffset: 0; stroke-linejoin: miter; stroke-miterlimit: 4; fill: rgb(255,255,255); fill-rule: nonzero; opacity: 1;" vector-effect="non-scaling-stroke"  transform=" translate(-33.09, -24.32)" d="M 0 0 C 0.726 0.445 1.258 1.422 1.75 1.856 C 2.2439999999999998 2.2920000000000003 2.8049999999999997 2.2430000000000003 2.8049999999999997 2.2430000000000003 C 2.8049999999999997 2.2430000000000003 2.4559999999999995 0.9290000000000003 2.3589999999999995 -0.5209999999999995 C 2.2629999999999995 -1.9729999999999994 2.3589999999999995 -8.720999999999998 2.3589999999999995 -8.720999999999998 C 2.3589999999999995 -8.720999999999998 2.6059999999999994 -8.919999999999998 3.6959999999999997 -10.241999999999997 L 5.462999999999999 -7.182999999999997 C 4.898 -6.692999999999997 4.364999999999999 -6.244999999999997 4.196 -6.148999999999997 C 3.7909999999999995 -5.916999999999997 3.578 -5.626999999999997 3.578 -5.336999999999997 L 3.578 -2.2629999999999972 C 3.578 -2.2629999999999972 5.949999999999999 -3.7339999999999973 7.045 -4.441999999999997 L 8.303 -2.2659999999999965 C 7.041 -2.0069999999999966 5.8980000000000015 -1.8169999999999964 5.8980000000000015 -1.8169999999999964 C 5.8980000000000015 -1.8169999999999964 7.293000000000001 -0.7439999999999964 9.522000000000002 -0.15099999999999647 L 33.122 40.724000000000004 L 56.693 -0.1039999999999992 C 59.027 -0.6849999999999992 60.494 -1.8169999999999993 60.494 -1.8169999999999993 C 60.494 -1.8169999999999993 59.271 -2.019999999999999 57.957 -2.2929999999999993 L 59.238 -4.513 C 60.275999999999996 -3.838 62.815 -2.263 62.815 -2.263 L 62.815 -5.337 C 62.815 -5.627 62.602999999999994 -5.917 62.196 -6.149 C 62.018 -6.251 61.431 -6.746 60.83 -7.269 L 62.608 -10.349 C 63.773999999999994 -8.929 64.033 -8.721 64.033 -8.721 C 64.033 -8.721 64.13 -1.9729999999999999 64.033 -0.5210000000000008 C 63.937000000000005 0.9289999999999992 63.589 2.242999999999999 63.589 2.242999999999999 C 63.589 2.242999999999999 64.149 2.291999999999999 64.643 1.855999999999999 C 65.136 1.421999999999999 65.667 0.44499999999999895 66.393 -1.1102230246251565e-15 C 66.623 -0.1420000000000011 67.063 -0.3910000000000011 67.557 -0.6640000000000011 L 33.122 58.979 L -1.384 -0.786 C -0.805 -0.466 -0.265 -0.162 0 0" stroke-linecap="round" />
</g>
<g transform="matrix(1.33 0 0 -1.33 547.5 601.02)" clip-path="url(#CLIPPATH_40)"  >
<clipPath id="CLIPPATH_40" >
	<path transform="matrix(1 0 0 1 110.93 -106.52) translate(-420.94, -297.64)" d="M 0 595.28 L 841.89 595.28 L 841.89 0 L 0 0 Z" stroke-linecap="round" />
</clipPath>
<path style="stroke: none; stroke-width: 1; stroke-dasharray: none; stroke-linecap: butt; stroke-dashoffset: 0; stroke-linejoin: miter; stroke-miterlimit: 4; fill: rgb(255,255,255); fill-rule: nonzero; opacity: 1;" vector-effect="non-scaling-stroke"  transform=" translate(2.64, -2.49)" d="M 0 0 C -0.025 0.877 -0.723 1.702 -0.928 3.197 C -1.135 4.692 -1.07 6.11 -1.07 6.11 C -1.07 6.11 -1.2890000000000001 4.964 -2.037 3.7 C -2.785 2.4370000000000003 -3.106 2.6690000000000005 -3.106 2.372 C -3.106 2.076 -3.1199999999999997 1.509 -3.2489999999999997 1.2759999999999998 C -3.3429999999999995 1.1069999999999998 -4.6049999999999995 -0.3530000000000002 -5.284 -1.1340000000000003 L -0.18900000000000006 -1.1340000000000003 C -0.077 -0.747 0.01 -0.333 0 0" stroke-linecap="round" />
</g>
<g transform="matrix(1.33 0 0 -1.33 504.28 573.21)" clip-path="url(#CLIPPATH_41)"  >
<clipPath id="CLIPPATH_41" >
	<path transform="matrix(1 0 0 1 143.31 -127.36) translate(-420.94, -297.64)" d="M 0 595.28 L 841.89 595.28 L 841.89 0 L 0 0 Z" stroke-linecap="round" />
</clipPath>
<path style="stroke: none; stroke-width: 1; stroke-dasharray: none; stroke-linecap: butt; stroke-dashoffset: 0; stroke-linejoin: miter; stroke-miterlimit: 4; fill: rgb(255,255,255); fill-rule: nonzero; opacity: 1;" vector-effect="non-scaling-stroke"  transform=" translate(10.97, -11.46)" d="M 0 0 C -0.264 0.782 -0.682 1.937 -1.334 3.571 C -2.822 7.303000000000001 -3.964 9.218 -4.873 11.538 C -5.781000000000001 13.858 -6.633 16.392 -6.633 16.392 L -4.873 16.392 C -4.873 16.392 -7.193 18.905 -7.328 19.08 C -7.464 19.253999999999998 -8.063 19.273 -8.18 19.543999999999997 C -8.273 19.761999999999997 -8.48 21.653999999999996 -8.709 22.915999999999997 L -10.501999999999999 19.808999999999997 C -9.78 18.324999999999996 -8.681999999999999 15.970999999999997 -8.681999999999999 15.385999999999997 C -8.681999999999999 14.515999999999998 -11.020999999999999 11.344999999999997 -11.020999999999999 11.344999999999997 C -11.020999999999999 11.344999999999997 -11.027999999999999 12.124999999999996 -11.183 12.871999999999996 C -11.289 13.383999999999997 -12.286999999999999 14.799999999999997 -12.907 15.643999999999997 L -15.067 11.900999999999996 C -13.303 9.206999999999997 -11.516 5.794999999999996 -11.516 5.794999999999996 C -11.516 5.794999999999996 -14.004999999999999 7.325999999999996 -16.53 9.368999999999996 L -21.939 0 Z" stroke-linecap="round" />
</g>
<g transform="matrix(1.33 0 0 -1.33 540.34 599.81)" clip-path="url(#CLIPPATH_42)"  >
<clipPath id="CLIPPATH_42" >
	<path transform="matrix(1 0 0 1 116.31 -107.43) translate(-420.94, -297.64)" d="M 0 595.28 L 841.89 595.28 L 841.89 0 L 0 0 Z" stroke-linecap="round" />
</clipPath>
<path style="stroke: none; stroke-width: 1; stroke-dasharray: none; stroke-linecap: butt; stroke-dashoffset: 0; stroke-linejoin: miter; stroke-miterlimit: 4; fill: rgb(255,255,255); fill-rule: nonzero; opacity: 1;" vector-effect="non-scaling-stroke"  transform=" translate(0, 4.53)" d="M 0 0 C -0.562 -3.164 -0.581 -7.659 -0.571 -9.063 L 0.572 -9.063 C 0.581 -7.659 0.562 -3.164 0 0" stroke-linecap="round" />
</g>
</svg>